<?xml version="1.0" encoding="utf-8"?>
<!DOCTYPE svg PUBLIC "-//W3C//DTD SVG 20010904//EN" "http://www.w3.org/TR/2001/REC-SVG-20010904/DTD/svg10.dtd">
<svg version="1.0" xmlns="http://www.w3.org/2000/svg" width="602pt" height="580pt" viewBox="0 0 602 580" style="" preserveAspectRatio="xMidYMid meet">
<g>
<path d="M 271.500 2.079 C 210.925 6.476 149.687 31.097 105.156 68.957 C 54.064 112.396 20.528 168.468 7.594 232.078 C -5.478 296.373 3.248 361.339 32.822 419.902 C 42.242 438.556 56.103 459.869 67.906 473.850 C 74.665 481.856 98.423 505.660 106.234 512.253 C 112.348 517.414 132.172 531.512 141.000 536.978 C 144.025 538.851 152.575 543.483 160.000 547.271 C 194.525 564.887 233.101 575.230 274.644 578.010 C 319.615 581.019 371.550 570.586 415.000 549.813 C 455.713 530.349 493.557 498.998 522.331 460.897 C 539.902 437.631 558.215 401.456 565.817 375.000 C 575.908 339.880 578.203 324.121 578.193 290.000 C 578.184 258.800 576.373 244.158 569.385 218.771 L 566.982 210.043 572.132 197.271 C 577.406 184.192 579.194 179.000 578.424 179.000 C 578.184 179.000 574.503 181.729 570.244 185.065 C 565.985 188.401 560.025 192.746 557.000 194.720 C 553.975 196.695 549.732 199.703 547.572 201.405 C 543.339 204.740 542.543 205.245 526.283 214.908 C 520.352 218.432 513.475 222.550 511.000 224.058 C 504.788 227.844 474.065 243.542 471.000 244.497 C 469.625 244.925 465.201 246.815 461.169 248.697 C 450.777 253.548 439.466 257.973 439.690 257.099 C 439.795 256.691 442.720 254.614 446.190 252.482 C 455.722 246.627 490.016 224.037 494.000 220.990 C 495.925 219.518 504.700 213.038 513.500 206.591 C 533.880 191.660 538.450 188.117 556.061 173.590 C 587.838 147.380 590.469 143.244 595.939 110.910 C 597.017 104.536 598.435 94.411 599.090 88.410 C 600.421 76.223 600.555 45.109 599.309 37.667 L 598.500 32.834 582.105 50.667 C 561.950 72.590 521.079 115.000 520.107 115.000 C 519.715 115.000 515.930 110.789 511.696 105.643 C 507.462 100.497 498.260 90.700 491.249 83.872 C 457.531 51.038 422.851 30.061 378.000 15.371 C 346.565 5.075 303.784 -0.264 271.500 2.079 M 310.500 21.048 C 346.616 24.141 376.466 32.353 409.000 48.145 C 425.678 56.241 437.528 63.603 454.500 76.413 C 468.114 86.689 491.597 109.660 500.413 121.325 L 506.326 129.150 493.174 142.053 C 455.596 178.922 412.557 216.618 385.373 236.472 C 381.629 239.206 373.049 244.512 366.306 248.264 C 322.753 272.493 275.557 279.674 226.510 269.532 C 212.663 266.669 194.016 259.680 177.000 250.975 C 171.775 248.302 159.400 242.206 149.500 237.429 C 139.600 232.651 122.275 224.188 111.000 218.621 C 90.679 208.588 90.439 208.501 83.500 208.610 C 79.650 208.671 74.479 209.364 72.008 210.152 L 67.516 211.583 71.755 214.042 C 75.796 216.386 101.454 232.577 118.500 243.539 C 131.053 251.611 156.844 267.924 164.000 272.317 C 167.575 274.511 178.375 281.337 188.000 287.484 C 212.039 302.837 217.412 306.250 225.500 311.304 C 229.350 313.709 237.450 318.828 243.500 322.679 C 249.550 326.529 271.375 340.360 292.000 353.414 C 312.625 366.467 331.525 378.473 334.000 380.094 C 339.510 383.702 367.704 401.574 382.000 410.520 C 387.775 414.134 396.325 419.529 401.000 422.509 C 405.675 425.489 413.550 430.463 418.500 433.563 C 423.450 436.663 431.550 441.813 436.500 445.008 C 441.450 448.203 445.801 450.521 446.168 450.159 C 446.536 449.796 447.153 444.937 447.539 439.361 L 448.242 429.222 441.319 424.361 C 437.511 421.687 421.897 411.194 406.621 401.043 C 384.732 386.497 379.152 382.362 380.292 381.529 C 381.087 380.947 386.184 378.698 391.619 376.530 C 409.189 369.522 447.835 349.079 453.914 343.578 C 454.914 342.672 459.131 339.585 463.284 336.716 C 473.310 329.790 489.066 316.617 496.500 308.946 C 501.567 303.716 502.101 302.847 499.933 303.350 C 491.765 305.247 456.705 311.254 446.500 312.504 C 420.666 315.670 368.000 317.345 368.000 315.000 C 368.000 314.450 368.573 314.000 369.273 314.000 C 374.412 314.000 412.628 308.424 423.763 306.050 C 448.478 300.780 461.369 297.805 469.500 295.495 C 487.010 290.521 511.533 282.776 514.294 281.348 C 526.248 275.166 533.782 267.475 544.022 251.000 C 546.927 246.325 550.474 240.959 551.902 239.075 L 554.500 235.650 555.713 242.075 C 561.196 271.128 561.290 308.273 555.955 337.500 C 553.471 351.110 546.383 376.785 542.980 384.500 C 542.010 386.700 539.558 392.550 537.532 397.500 C 530.366 415.002 515.516 439.708 501.169 458.000 C 485.518 477.953 459.284 501.522 435.207 517.262 C 425.695 523.480 400.892 536.388 392.057 539.718 C 365.738 549.637 344.621 555.032 319.770 558.184 C 306.603 559.854 272.292 559.814 260.000 558.113 C 201.729 550.052 154.229 529.069 113.500 493.395 C 93.516 475.892 76.107 455.839 63.237 435.500 C 44.968 406.627 33.832 379.949 27.017 348.723 C 21.886 325.215 20.599 313.442 20.599 290.000 C 20.599 245.456 30.543 204.524 50.723 166.000 C 69.712 129.750 91.414 104.314 129.895 73.206 C 147.002 59.377 181.303 41.885 210.000 32.355 C 223.383 27.911 251.339 22.635 272.000 20.655 C 279.980 19.891 299.284 20.088 310.500 21.048 "/></g>
<g fill="#CC333305" stroke="#CC333305">
<path d="M 369.601 315.164 C 369.886 315.624 377.629 315.948 386.809 315.884 C 395.989 315.820 402.825 315.622 402.000 315.444 C 398.390 314.663 369.136 314.410 369.601 315.164 "/></g>
<g fill="#E6334D0A" stroke="#E6334D0A">
<path d="M 269.500 273.000 L 262.500 273.647 268.500 273.693 C 271.800 273.718 277.875 273.420 282.000 273.031 L 289.500 272.323 283.000 272.338 C 279.425 272.346 273.350 272.644 269.500 273.000 "/></g>
<g fill="#CC333305" stroke="#CC333305">
<path d="M 494.500 86.500 L 507.000 99.000 494.500 86.500 L 482.000 74.000 494.500 86.500 "/></g>
<g fill="#CC333305" stroke="#CC333305">
<path d="M 495.000 492.980 L 483.500 504.532 495.000 492.980 L 506.500 481.427 495.000 492.980 "/></g>
<g fill="#CC333305" stroke="#CC333305">
<path d="M 420.000 314.000 L 412.500 314.640 419.000 314.721 C 422.575 314.766 427.975 314.460 431.000 314.042 C 436.364 313.300 436.389 313.283 432.000 313.321 C 429.525 313.343 424.125 313.648 420.000 314.000 "/></g>
<g fill="#CC333305" stroke="#CC333305">
<path d="M 450.135 252.643 C 446.186 254.236 445.920 254.271 446.250 253.155 C 446.388 252.690 444.718 253.477 442.539 254.905 C 440.361 256.332 439.011 257.405 439.539 257.289 C 442.205 256.703 452.565 252.640 453.000 252.010 C 453.275 251.611 451.986 251.896 450.135 252.643 "/></g>
<g fill="#CC333305" stroke="#CC333305">
<path d="M 532.539 102.266 C 532.167 102.688 531.373 102.731 530.776 102.362 C 530.179 101.993 529.965 102.134 530.299 102.675 C 530.634 103.217 528.437 106.099 525.418 109.080 C 520.855 113.585 519.753 114.247 518.888 113.000 C 518.044 111.783 517.921 111.771 518.236 112.938 C 519.016 115.820 520.722 114.900 526.907 108.266 C 530.377 104.545 532.911 101.845 532.539 102.266 "/></g>
<g fill="#E135412B" stroke="#E135412B">
<path d="M 495.000 86.000 L 504.000 95.000 495.000 86.000 L 486.000 77.000 495.000 86.000 "/></g>
<g fill="#CC333305" stroke="#CC333305">
<path d="M 479.383 481.223 C 474.919 485.500 471.570 489.000 471.942 489.000 C 472.313 489.000 475.966 485.500 480.059 481.223 L 487.500 473.446 479.383 481.223 "/></g>
<g fill="#E135412B" stroke="#E135412B">
<path d="M 495.000 493.970 L 487.500 501.543 495.000 493.970 L 502.500 486.397 495.000 493.970 "/></g>
<g fill="#CC333305" stroke="#CC333305">
<path d="M 480.500 99.500 L 488.000 107.000 480.500 99.500 L 473.000 92.000 480.500 99.500 "/></g>
<g fill="#CC333305" stroke="#CC333305">
<path d="M 430.000 519.026 C 430.000 519.493 427.748 521.101 424.995 522.599 C 422.242 524.097 420.161 525.494 420.370 525.703 C 420.579 525.913 423.595 524.417 427.071 522.379 C 430.897 520.137 432.722 518.576 431.696 518.426 C 430.763 518.289 430.000 518.559 430.000 519.026 "/></g>
<g fill="#E135424D" stroke="#E135424D">
<path d="M 486.000 147.966 L 479.500 154.547 486.000 147.966 L 492.500 141.385 486.000 147.966 "/></g>
<g fill="#CC333305" stroke="#CC333305">
<path d="M 228.500 572.570 C 231.250 573.335 234.400 573.932 235.500 573.896 C 236.600 573.859 235.025 573.212 232.000 572.457 C 224.843 570.671 222.005 570.763 228.500 572.570 "/></g>
<g fill="#E6334D0A" stroke="#E6334D0A">
<path d="M 89.500 81.464 L 83.500 87.549 89.500 81.464 L 95.500 75.378 89.500 81.464 "/></g>
<g fill="#E6334D0A" stroke="#E6334D0A">
<path d="M 250.000 24.000 C 245.002 25.052 250.129 25.096 256.000 24.051 C 260.059 23.329 260.157 23.251 257.000 23.257 C 255.075 23.260 251.925 23.595 250.000 24.000 "/></g>
<g fill="#CC333305" stroke="#CC333305">
<path d="M 8.071 224.571 C 7.384 227.642 7.015 230.348 7.250 230.584 C 7.486 230.819 8.241 228.500 8.929 225.429 C 9.616 222.358 9.985 219.652 9.750 219.416 C 9.514 219.181 8.759 221.500 8.071 224.571 "/></g>
<g fill="#CC333305" stroke="#CC333305">
<path d="M 452.500 179.370 L 447.500 184.357 452.500 179.370 L 457.500 174.383 452.500 179.370 "/></g>
<g fill="#CC333305" stroke="#CC333305">
<path d="M 577.000 155.961 L 571.500 161.551 577.000 155.961 L 582.500 150.370 577.000 155.961 "/></g>
<g fill="#CC333305" stroke="#CC333305">
<path d="M 438.279 537.325 L 433.058 540.500 438.112 538.000 C 440.892 536.625 443.241 535.196 443.333 534.825 C 443.425 534.453 441.150 535.578 438.279 537.325 "/></g>
<g fill="#CC333305" stroke="#CC333305">
<path d="M 563.750 167.336 C 561.138 169.466 559.000 171.560 559.000 171.989 C 559.000 172.419 561.138 170.677 563.750 168.118 L 568.500 163.465 563.750 167.336 "/></g>
<g fill="#CC333305" stroke="#CC333305">
<path d="M 397.879 43.522 C 400.838 44.926 403.444 45.889 403.671 45.662 C 403.898 45.436 402.152 44.470 399.791 43.515 C 392.949 40.749 392.043 40.752 397.879 43.522 "/></g>
<g fill="#E6334D0A" stroke="#E6334D0A">
<path d="M 464.000 85.680 C 467.025 88.400 468.904 89.821 468.176 88.838 C 467.447 87.855 464.972 85.629 462.676 83.893 C 459.748 81.679 460.144 82.213 464.000 85.680 "/></g>
<g fill="#CC333305" stroke="#CC333305">
<path d="M 495.072 464.287 C 492.636 467.154 491.961 468.271 493.572 466.768 C 495.182 465.266 497.175 462.920 498.000 461.555 C 498.825 460.190 497.507 461.419 495.072 464.287 "/></g>
<g fill="#CC333305" stroke="#CC333305">
<path d="M 401.879 424.678 C 402.462 425.680 402.953 426.126 402.970 425.668 C 402.986 425.211 404.688 425.812 406.750 427.004 C 408.813 428.197 409.600 428.424 408.500 427.510 C 407.400 426.596 405.222 425.174 403.660 424.351 C 400.984 422.942 400.881 422.961 401.879 424.678 "/></g>
<g fill="#CC333305" stroke="#CC333305">
<path d="M 44.090 400.500 C 44.090 401.050 45.175 403.525 46.500 406.000 C 47.825 408.475 48.910 410.050 48.910 409.500 C 48.910 408.950 47.825 406.475 46.500 404.000 C 45.175 401.525 44.090 399.950 44.090 400.500 "/></g>
<g fill="#CC333305" stroke="#CC333305">
<path d="M 568.160 366.860 C 567.522 368.989 567.031 371.355 567.070 372.116 C 567.108 372.877 567.810 371.315 568.631 368.644 C 569.451 365.974 569.942 363.608 569.721 363.388 C 569.501 363.167 568.798 364.730 568.160 366.860 "/></g>
<g fill="#CC333305" stroke="#CC333305">
<path d="M 481.201 323.500 L 476.901 327.500 481.201 323.500 L 485.500 319.500 481.201 323.500 "/></g>
<g fill="#CC333305" stroke="#CC333305">
<path d="M 91.000 108.670 C 88.525 111.114 87.175 112.827 88.000 112.476 C 88.825 112.126 90.850 110.127 92.500 108.033 C 95.375 104.385 95.312 104.412 91.000 108.670 "/></g>
<g fill="#CC333305" stroke="#CC333305">
<path d="M 556.000 77.953 L 551.500 82.556 556.000 77.953 L 560.500 73.350 556.000 77.953 "/></g>
<g fill="#E6334D0A" stroke="#E6334D0A">
<path d="M 108.000 487.000 L 113.000 492.000 108.000 487.000 L 103.000 482.000 108.000 487.000 "/></g>
<g fill="#E6334D0A" stroke="#E6334D0A">
<path d="M 449.089 432.333 L 449.718 437.500 449.859 432.809 C 449.937 430.229 449.654 427.904 449.230 427.642 C 448.807 427.380 448.743 429.491 449.089 432.333 "/></g>
<g fill="#E6334D0A" stroke="#E6334D0A">
<path d="M 574.237 234.000 C 574.237 235.375 574.580 237.850 575.000 239.500 C 575.681 242.176 575.763 242.230 575.763 240.000 C 575.763 238.625 575.420 236.150 575.000 234.500 C 574.319 231.824 574.237 231.770 574.237 234.000 "/></g>
<g fill="#E6334D0A" stroke="#E6334D0A">
<path d="M 95.000 105.953 L 90.500 110.556 95.000 105.953 L 99.500 101.350 95.000 105.953 "/></g>
<g fill="#E6334D0A" stroke="#E6334D0A">
<path d="M 108.000 92.953 L 103.500 97.556 108.000 92.953 L 112.500 88.350 108.000 92.953 "/></g>
<g fill="#E135424D" stroke="#E135424D">
<path d="M 546.000 87.953 L 541.500 92.556 546.000 87.953 L 550.500 83.350 546.000 87.953 "/></g>
<g fill="#CC333305" stroke="#CC333305">
<path d="M 441.221 351.799 L 436.942 354.500 441.048 352.500 C 443.307 351.400 445.232 350.185 445.327 349.799 C 445.422 349.414 443.574 350.314 441.221 351.799 "/></g>
<g fill="#CC333305" stroke="#CC333305">
<path d="M 6.218 344.500 C 6.228 345.600 6.580 347.850 7.000 349.500 C 7.686 352.195 7.765 352.246 7.782 350.000 C 7.792 348.625 7.440 346.375 7.000 345.000 C 6.373 343.041 6.203 342.933 6.218 344.500 "/></g>
<g fill="#CC333305" stroke="#CC333305">
<path d="M 492.500 313.449 L 488.500 317.559 492.500 313.449 L 496.500 309.338 492.500 313.449 "/></g>
<g fill="#CC333305" stroke="#CC333305">
<path d="M 527.221 213.799 L 522.942 216.500 527.048 214.500 C 529.307 213.400 531.232 212.185 531.327 211.799 C 531.422 211.414 529.574 212.314 527.221 213.799 "/></g>
<g fill="#E6334D0A" stroke="#E6334D0A">
<path d="M 381.000 564.500 C 379.075 565.241 378.175 565.848 379.000 565.848 C 379.825 565.848 382.075 565.241 384.000 564.500 C 385.925 563.759 386.825 563.152 386.000 563.152 C 385.175 563.152 382.925 563.759 381.000 564.500 "/></g>
<g fill="#E6334D0A" stroke="#E6334D0A">
<path d="M 253.631 556.212 C 253.899 556.645 256.004 556.940 258.309 556.866 L 262.500 556.733 257.822 556.078 C 255.249 555.719 253.363 555.779 253.631 556.212 "/></g>
<g fill="#E6334D0A" stroke="#E6334D0A">
<path d="M 381.500 314.000 L 377.500 314.716 381.000 314.843 C 382.925 314.912 385.175 314.533 386.000 314.000 C 387.636 312.943 387.406 312.943 381.500 314.000 "/></g>
<g fill="#E6334D0A" stroke="#E6334D0A">
<path d="M 534.500 266.662 L 531.500 271.040 534.755 267.286 C 536.546 265.221 537.896 263.251 537.755 262.908 C 537.615 262.565 536.150 264.255 534.500 266.662 "/></g>
<g fill="#E6334D0A" stroke="#E6334D0A">
<path d="M 119.583 82.981 L 115.666 86.500 119.583 82.981 L 123.500 79.462 119.583 82.981 "/></g>
<g fill="#E6334D0A" stroke="#E6334D0A">
<path d="M 568.500 63.449 L 564.500 67.559 568.500 63.449 L 572.500 59.338 568.500 63.449 "/></g>
<g fill="#E6334D0A" stroke="#E6334D0A">
<path d="M 454.500 51.663 C 457.055 54.083 463.333 58.177 461.817 56.435 C 460.891 55.371 458.641 53.649 456.817 52.608 C 454.993 51.567 453.950 51.142 454.500 51.663 "/></g>
<g fill="#E6334D0A" stroke="#E6334D0A">
<path d="M 377.000 36.500 C 378.925 37.241 381.175 37.848 382.000 37.848 C 382.825 37.848 381.925 37.241 380.000 36.500 C 378.075 35.759 375.825 35.152 375.000 35.152 C 374.175 35.152 375.075 35.759 377.000 36.500 "/></g>
<g fill="#E135412B" stroke="#E135412B">
<path d="M 533.500 100.449 L 529.500 104.559 533.500 100.449 L 537.500 96.338 533.500 100.449 "/></g>
</svg>
